<mxfile host="app.diagrams.net" modified="2023-10-17T12:36:55.771Z" agent="Mozilla/5.0 (Windows NT 10.0; Win64; x64) AppleWebKit/537.36 (KHTML, like Gecko) Chrome/117.0.0.0 Safari/537.36 Edg/117.0.2045.43" etag="0dQv7Ny9EfXzL-35J7Ye" version="22.0.4" type="github" pages="2">
  <diagram name="第 1 页" id="vBxfCOw4VtbNVdEkCRoJ">
    <mxGraphModel dx="2295" dy="926" grid="1" gridSize="10" guides="1" tooltips="1" connect="1" arrows="1" fold="1" page="1" pageScale="1" pageWidth="827" pageHeight="1169" math="0" shadow="0">
      <root>
        <mxCell id="0" />
        <mxCell id="1" parent="0" />
        <mxCell id="i_PWW9dxf5Eg5eC_iILu-4" value="【代码阅读】&#xa;以一个函数作为单元，快速扫描浏览其中意义，单元之间堆叠而层级分布，于上层概览而感觉到代码系统意义，从整体上更能感觉推演其周期变化、内外意义。&#xa;   1、代码文件，从头往下看，是自底向上。阅读多了文件，即便不看代码是什么，也能感觉到上面的函数单元是基础，越往下的单元以上面的为基础。（C语法，避免声明）&#xa;   2、例外1：多块并存。每一个块相当于一个文件，遵循自底向上。但合在一个文件&#xa;阅读困难之原理模糊不清：相同或者类似的1种功能与表象，背后有着n种实现方式。经典的一对多，因此对功能或原理有着清晰的认知，某种程度上看比阅读代码更为重要。&#xa;   普遍现象：代码阅读过程中遇到极大阻塞，完全无法继续下去；往往是完全不懂这样的代码是做什么，输入输出，运行现象，系统行为等完全不知道（扩展：隐性知识）。或者是原理抽象，依赖复杂导致的；可以这么说，现象原理是各种行为，而代码就是对行为的映射，阅读代码就是通过代码解读行为原理的过程。（正向：当熟悉、易于理解时，读代码也会变得简单。）（反例：1、不知道块设备的块操作概念，而阅读上层代码。 2、。。。）&#xa;       现象可以分为表象与内象（内层现象，有层次之分）：只观察表象少有认知，更深的层次有着更多现象与原理&#xa;    快捷办法：1、通过阅读专门的书籍，应为高者总结的经验能省去弯路    2、直接咨询高者&#xa;    根本办法：&#xa;         1、需要不断追踪，提问，记录，采取合适的策略来熟悉了解，在层层接近，使自己达到可以理解的地步。&#xa;         2、在发散的过程中，能从相近的出发点。加强自身认知，进行创新。（观看不如做笔记、看书不如写书、听讲不如作表达交流）&#xa;&#xa;&#xa;&#xa;【笔记】&#xa;有限的文字，难于表达一人对繁多的事物间同时的感想。或而只是写出只言片语，或而忘记错误。。。失真严重；" style="text;whiteSpace=wrap;" parent="1" vertex="1">
          <mxGeometry x="-80" y="210" width="960" height="230" as="geometry" />
        </mxCell>
      </root>
    </mxGraphModel>
  </diagram>
  <diagram id="FeI3eVH0jpAY8imO3txM" name="HCE">
    <mxGraphModel dx="1762" dy="1111" grid="1" gridSize="10" guides="1" tooltips="1" connect="1" arrows="1" fold="1" page="1" pageScale="1" pageWidth="827" pageHeight="1169" math="0" shadow="0">
      <root>
        <mxCell id="0" />
        <mxCell id="1" parent="0" />
        <mxCell id="utTpAewrBSZOBZjSpMMO-1" value="&lt;a class=&quot;por-carousel-slide&quot; style=&quot;box-sizing: border-box; margin: 0px; padding: 0px; background-color: rgb(255, 255, 255); position: relative; flex-shrink: 0; width: 2240px; height: 400px; orphans: 2; text-align: start; text-indent: 0px; widows: 2;&quot;&gt;&lt;div class=&quot;por-container&quot; style=&quot;box-sizing: border-box; max-width: 1280px; margin-left: auto; margin-right: auto; position: relative;&quot;&gt;&lt;div class=&quot;por-section-body&quot; style=&quot;box-sizing: border-box;&quot;&gt;&lt;div style=&quot;box-sizing: border-box;&quot;&gt;&lt;div data-partial-refresh=&quot;false&quot; style=&quot;box-sizing: border-box;&quot;&gt;&lt;div class=&quot;prodoc-banner-title noPlayer&quot; style=&quot;color: rgb(87, 93, 108); font-family: -apple-system, HuaweiSans, &amp;quot;Helvetica Neue&amp;quot;, Helvetica, Arial, &amp;quot;PingFang SC&amp;quot;, &amp;quot;Hiragino Sans GB&amp;quot;, STHeiti, &amp;quot;Microsoft YaHei&amp;quot;, &amp;quot;Microsoft JhengHei&amp;quot;, SimSun, sans-serif; font-size: 14px; font-style: normal; font-variant-ligatures: normal; font-variant-caps: normal; font-weight: 400; letter-spacing: normal; text-transform: none; word-spacing: 0px; text-decoration-line: none; -webkit-text-stroke-width: 0px; box-sizing: border-box; display: inline-block; max-width: 100%;&quot;&gt;&lt;h1 class=&quot;por-text-title-t2 js-title pc&quot; title=&quot;&quot; style=&quot;box-sizing: border-box; color: rgb(37, 43, 58); font-size: 40px; font-weight: 700; margin: 0px; padding: 0px; line-height: 50px; text-overflow: ellipsis; display: -webkit-box; -webkit-box-orient: vertical; -webkit-line-clamp: 2; overflow: hidden;&quot;&gt;&lt;span class=&quot;name-zh&quot; style=&quot;box-sizing: border-box;&quot;&gt;Huawei Cloud EulerOS&lt;/span&gt;&lt;/h1&gt;&lt;/div&gt;&lt;div class=&quot;por-text-body-t2 prodoc-description pc js-title&quot; title=&quot;&quot; style=&quot;box-sizing: border-box; line-height: 22px; margin-top: 12px; text-overflow: ellipsis; display: -webkit-box; -webkit-box-orient: vertical; -webkit-line-clamp: 4; overflow: hidden;&quot;&gt;&lt;p style=&quot;color: inherit; font-family: -apple-system, HuaweiSans, &amp;quot;Helvetica Neue&amp;quot;, Helvetica, Arial, &amp;quot;PingFang SC&amp;quot;, &amp;quot;Hiragino Sans GB&amp;quot;, STHeiti, &amp;quot;Microsoft YaHei&amp;quot;, &amp;quot;Microsoft JhengHei&amp;quot;, SimSun, sans-serif; font-size: inherit; font-style: normal; font-variant-ligatures: normal; font-variant-caps: normal; font-weight: inherit; letter-spacing: normal; text-transform: none; word-spacing: 0px; text-decoration-line: none; -webkit-text-stroke-width: 0px; box-sizing: border-box; margin: 0px; padding: 0px;&quot;&gt;Huawei Cloud EulerOS(简称HCE OS)，是基于华为开源社区openEuler构建的linux操作系统&lt;/p&gt;&lt;p style=&quot;color: inherit; font-family: -apple-system, HuaweiSans, &amp;quot;Helvetica Neue&amp;quot;, Helvetica, Arial, &amp;quot;PingFang SC&amp;quot;, &amp;quot;Hiragino Sans GB&amp;quot;, STHeiti, &amp;quot;Microsoft YaHei&amp;quot;, &amp;quot;Microsoft JhengHei&amp;quot;, SimSun, sans-serif; font-size: inherit; font-style: normal; font-variant-ligatures: normal; font-variant-caps: normal; font-weight: inherit; letter-spacing: normal; text-transform: none; word-spacing: 0px; text-decoration-line: none; -webkit-text-stroke-width: 0px; box-sizing: border-box; margin: 0px; padding: 0px;&quot;&gt;&lt;br&gt;&lt;/p&gt;&lt;p style=&quot;box-sizing: border-box; margin: 0px; padding: 0px;&quot;&gt;&lt;font face=&quot;-apple-system, HuaweiSans, Helvetica Neue, Helvetica, Arial, PingFang SC, Hiragino Sans GB, STHeiti, Microsoft YaHei, Microsoft JhengHei, SimSun, sans-serif&quot; color=&quot;#575d6c&quot;&gt;EOS（end of support）,&amp;nbsp; EOM（end of market）&lt;/font&gt;&lt;br&gt;&lt;/p&gt;&lt;/div&gt;&lt;/div&gt;&lt;/div&gt;&lt;/div&gt;&lt;/div&gt;&lt;/a&gt;" style="text;whiteSpace=wrap;html=1;" vertex="1" parent="1">
          <mxGeometry x="40" y="310" width="680" height="160" as="geometry" />
        </mxCell>
      </root>
    </mxGraphModel>
  </diagram>
</mxfile>
